<svg width="640" height="380" viewBox="0 0 640 380" xmlns="http://www.w3.org/2000/svg">
  <defs>
    <linearGradient id="bgMentor" x1="0%" y1="0%" x2="100%" y2="100%">
      <stop offset="0%" stop-color="#041B1A"/>
      <stop offset="100%" stop-color="#0B3C2F"/>
    </linearGradient>
    <linearGradient id="cardMentor" x1="0%" y1="0%" x2="100%" y2="0%">
      <stop offset="0%" stop-color="#E0FF9B" stop-opacity="0.8"/>
      <stop offset="100%" stop-color="#8CE48F" stop-opacity="0.9"/>
    </linearGradient>
  </defs>
  <rect width="640" height="380" rx="36" fill="url(#bgMentor)"/>
  <rect x="32" y="32" width="576" height="140" rx="24" fill="#081F1B" opacity="0.5"/>
  <rect x="52" y="58" width="160" height="90" rx="18" fill="url(#cardMentor)"/>
  <rect x="232" y="60" width="180" height="12" rx="6" fill="#B0FCC7"/>
  <rect x="232" y="88" width="260" height="12" rx="6" fill="#7BCF9E"/>
  <rect x="232" y="116" width="240" height="12" rx="6" fill="#569574"/>
  <rect x="32" y="198" width="280" height="130" rx="22" fill="#0A2A24"/>
  <rect x="332" y="198" width="276" height="130" rx="22" fill="#09241F"/>
  <rect x="52" y="218" width="240" height="16" rx="8" fill="#B0FCC7"/>
  <rect x="52" y="250" width="200" height="12" rx="6" fill="#6FB790"/>
  <rect x="352" y="218" width="236" height="12" rx="6" fill="#7BCF9E"/>
  <rect x="352" y="246" width="210" height="12" rx="6" fill="#4E8C70"/>
  <rect x="352" y="274" width="180" height="12" rx="6" fill="#366756"/>
  <circle cx="504" cy="260" r="36" fill="#0E372F"/>
  <path d="M504 238l18 18-18 18-18-18 18-18z" fill="#B0FCC7" opacity="0.8"/>
</svg>
